<?xml version="1.0" encoding="utf-8"?>
<?xml-stylesheet type="text/xsl" href="rss1.xsl"?>
<rss version="2.0" xmlns:atom="http://www.w3.org/2005/Atom" xmlns:content="http://purl.org/rss/1.0/modules/content/" xmlns:dc="http://purl.org/dc/elements/1.1/" xmlns:media="http://search.yahoo.com/mrss/">
<channel>
 <title>Getty</title>
 <link>http://www.gettyimg.com/</link>
 <atom:link href="http://www.gettyimg.com/" rel="self" type="application/rss+xml" />

 
                <item>
                <title><![CDATA[【Cinema Center】MOVIE - Underworld Films [1080p|x264|AAC 2.0]]]></title>
                <link><![CDATA[https://sharemania.us/threads/underworld-films-1080p-x264-aac-2-0.235565/]]></link>
                <description><![CDATA[<article>
<blockquote class="messageText SelectQuoteContainer ugc baseHtml">
Underworld (2003):<br>
<br>
<img src="https://www.themoviedb.org/t/p/w600_and_h900_bestv2/lIGGgiO7P5uFMqvLsodRddbmHfD.jpg" class="bbCodeImage LbImage" alt="[​IMG]" data-url="https://www.themoviedb.org/t/p/w600_and_h900_bestv2/lIGGgiO7P5uFMqvLsodRddbmHfD.jpg" style=""><br>
<br>
<div class="bbCodeBlock bbCodeCode">
<div class="type">Code:</div>
<pre>General
Complete name                  : Underworld Films\1. Underworld (Extended) (2003).mp4
Format                         : MPEG-4
Format profile                 : Base Media
Codec ID                       : isom (isom/avc1)
File size                      : 1.75 GiB
Duration                       : 2 h 13 min
Overall bit rate mode          : Variable
Overall bit rate               : 1 875 kb/s
Frame rate                     : 23.976 FPS
Encoded date                   : 2012-10-22 13:52:24 UTC
Tagged date                    : 2012-10-22 13:52:24 UTC
Video
ID                             : 1
Format                         : AVC
Format/Info                    : Advanced Video Codec
Format profile                 : High@L4
Format settings                : CABAC / 4 Ref Frames
Format settings, CABAC         : Yes
Format settings, Reference fra : 4 frames
Codec ID                       : avc1
Codec ID/Info                  : Advanced Video Coding
Duration                       : 2 h 13 min
Bit rate                       : 1 780 kb/s
Maximum bit rate               : 12.3 Mb/s
Width                          : 1 920 pixels
Height                         : 816 pixels
Display aspect ratio           : 2.35:1
Frame rate mode                : Constant
Frame rate                     : 23.976 (24000/1001) FPS
Color space                    : YUV
Chroma subsampling             : 4:2:0
Bit depth                      : 8 bits
Scan type                      : Progressive
Bits/(Pixel*Frame)             : 0.047
Stream size                    : 1.66 GiB (95%)
Writing library                : x264 core 125 r2200 999b753
Encoding settings              : cabac=1 / ref=5 / deblock=1:0:0 / analyse=0x3:0x133 / me=umh / subme=9 / psy=1 / psy_rd=1.00:0.00 / mixed_ref=1 / me_range=16 / chroma_me=1 / trellis=2 / 8x8dct=1 / cqm=0 / deadzone=21,11 / fast_pskip=1 / chroma_qp_offset=-2 / threads=12 / lookahead_threads=2 / sliced_threads=0 / nr=0 / decimate=1 / interlaced=0 / bluray_compat=0 / constrained_intra=0 / bframes=8 / b_pyramid=1 / b_adapt=2 / b_bias=2 / direct=3 / weightb=1 / open_gop=0 / weightp=2 / keyint=240 / keyint_min=23 / scenecut=40 / intra_refresh=0 / rc_lookahead=60 / rc=2pass / mbtree=1 / bitrate=1780 / ratetol=1.0 / qcomp=0.60 / qpmin=10 / qpmax=51 / qpstep=4 / cplxblur=20.0 / qblur=0.5 / ip_ratio=1.40 / aq=1:1.00
Encoded date                   : 2012-10-22 13:52:24 UTC
Tagged date                    : 2012-10-22 13:53:41 UTC
Codec configuration box        : avcC
Audio
ID                             : 2
Format                         : AAC LC
Format/Info                    : Advanced Audio Codec Low Complexity
Codec ID                       : mp4a-40-2
Duration                       : 2 h 13 min
Bit rate mode                  : Variable
Bit rate                       : 92.0 kb/s
Maximum bit rate               : 102 kb/s
Channel(s)                     : 2 channels
Channel layout                 : L R
Sampling rate                  : 48.0 kHz
Frame rate                     : 46.875 FPS (1024 SPF)
Compression mode               : Lossy
Stream size                    : 87.9 MiB (5%)
Language                       : English
Encoded date                   : 2012-10-22 13:53:35 UTC
Tagged date                    : 2012-10-22 13:53:41 UTC</pre>
</div><br>
Underworld: Evolution (2006):<br>
<br>
<img src="https://www.themoviedb.org/t/p/w600_and_h900_bestv2/yT1EDKhCzAumcZeBoAxqm0nY2H8.jpg" class="bbCodeImage LbImage" alt="[​IMG]" data-url="https://www.themoviedb.org/t/p/w600_and_h900_bestv2/yT1EDKhCzAumcZeBoAxqm0nY2H8.jpg" style=""><br>
<br>
<div class="bbCodeBlock bbCodeCode">
<div class="type">Code:</div>
<pre>General
Complete name                  : Underworld Films\2. Underworld- Evolution (2006).mp4
Format                         : MPEG-4
Format profile                 : Base Media
Codec ID                       : isom (isom/avc1)
File size                      : 1.50 GiB
Duration                       : 1 h 46 min
Overall bit rate mode          : Variable
Overall bit rate               : 2 020 kb/s
Frame rate                     : 23.976 FPS
Encoded date                   : 2012-10-21 20:04:58 UTC
Tagged date                    : 2012-10-21 20:04:58 UTC
Video
ID                             : 1
Format                         : AVC
Format/Info                    : Advanced Video Codec
Format profile                 : High@L4
Format settings                : CABAC / 4 Ref Frames
Format settings, CABAC         : Yes
Format settings, Reference fra : 4 frames
Codec ID                       : avc1
Codec ID/Info                  : Advanced Video Coding
Duration                       : 1 h 46 min
Bit rate                       : 1 925 kb/s
Maximum bit rate               : 15.7 Mb/s
Width                          : 1 920 pixels
Height                         : 800 pixels
Display aspect ratio           : 2.40:1
Frame rate mode                : Constant
Frame rate                     : 23.976 (24000/1001) FPS
Color space                    : YUV
Chroma subsampling             : 4:2:0
Bit depth                      : 8 bits
Scan type                      : Progressive
Bits/(Pixel*Frame)             : 0.052
Stream size                    : 1.43 GiB (95%)
Writing library                : x264 core 125 r2200 999b753
Encoding settings              : cabac=1 / ref=5 / deblock=1:0:0 / analyse=0x3:0x133 / me=umh / subme=9 / psy=1 / psy_rd=1.00:0.00 / mixed_ref=1 / me_range=16 / chroma_me=1 / trellis=2 / 8x8dct=1 / cqm=0 / deadzone=21,11 / fast_pskip=1 / chroma_qp_offset=-2 / threads=12 / lookahead_threads=2 / sliced_threads=0 / nr=0 / decimate=1 / interlaced=0 / bluray_compat=0 / constrained_intra=0 / bframes=8 / b_pyramid=1 / b_adapt=2 / b_bias=2 / direct=3 / weightb=1 / open_gop=0 / weightp=2 / keyint=240 / keyint_min=23 / scenecut=40 / intra_refresh=0 / rc_lookahead=60 / rc=2pass / mbtree=1 / bitrate=1925 / ratetol=1.0 / qcomp=0.60 / qpmin=10 / qpmax=51 / qpstep=4 / cplxblur=20.0 / qblur=0.5 / ip_ratio=1.40 / aq=1:1.00
Encoded date                   : 2012-10-21 20:04:58 UTC
Tagged date                    : 2012-10-21 20:06:05 UTC
Codec configuration box        : avcC
Audio
ID                             : 2
Format                         : AAC LC
Format/Info                    : Advanced Audio Codec Low Complexity
Codec ID                       : mp4a-40-2
Duration                       : 1 h 46 min
Bit rate mode                  : Variable
Bit rate                       : 92.0 kb/s
Maximum bit rate               : 103 kb/s
Channel(s)                     : 2 channels
Channel layout                 : L R
Sampling rate                  : 48.0 kHz
Frame rate                     : 46.875 FPS (1024 SPF)
Compression mode               : Lossy
Stream size                    : 70.0 MiB (5%)
Language                       : English
Encoded date                   : 2012-10-21 20:06:00 UTC
Tagged date                    : 2012-10-21 20:06:05 UTC</pre>
</div><br>
Underworld: Rise of the Lycans (2009):<br>
<br>
<img src="https://www.themoviedb.org/t/p/w600_and_h900_bestv2/yW9gF7rGn8EoV8B8rxOx1xjxVZf.jpg" class="bbCodeImage LbImage" alt="[​IMG]" data-url="https://www.themoviedb.org/t/p/w600_and_h900_bestv2/yW9gF7rGn8EoV8B8rxOx1xjxVZf.jpg" style=""><br>
<br>
<div class="bbCodeBlock bbCodeCode">
<div class="type">Code:</div>
<pre>General
Complete name                  : Underworld Films\3. Underworld- Rise of the Lycans (2009).mp4
Format                         : MPEG-4
Format profile                 : Base Media
Codec ID                       : isom (isom/avc1)
File size                      : 1.25 GiB
Duration                       : 1 h 32 min
Overall bit rate mode          : Variable
Overall bit rate               : 1 937 kb/s
Frame rate                     : 23.976 FPS
Encoded date                   : 2012-10-21 19:36:08 UTC
Tagged date                    : 2012-10-21 19:36:08 UTC
Video
ID                             : 1
Format                         : AVC
Format/Info                    : Advanced Video Codec
Format profile                 : High@L4
Format settings                : CABAC / 4 Ref Frames
Format settings, CABAC         : Yes
Format settings, Reference fra : 4 frames
Codec ID                       : avc1
Codec ID/Info                  : Advanced Video Coding
Duration                       : 1 h 32 min
Bit rate                       : 1 839 kb/s
Maximum bit rate               : 13.0 Mb/s
Width                          : 1 920 pixels
Height                         : 800 pixels
Display aspect ratio           : 2.40:1
Frame rate mode                : Constant
Frame rate                     : 23.976 (24000/1001) FPS
Color space                    : YUV
Chroma subsampling             : 4:2:0
Bit depth                      : 8 bits
Scan type                      : Progressive
Bits/(Pixel*Frame)             : 0.050
Stream size                    : 1.19 GiB (95%)
Writing library                : x264 core 125 r2200 999b753
Encoding settings              : cabac=1 / ref=5 / deblock=1:0:0 / analyse=0x3:0x133 / me=umh / subme=9 / psy=1 / psy_rd=1.00:0.00 / mixed_ref=1 / me_range=16 / chroma_me=1 / trellis=2 / 8x8dct=1 / cqm=0 / deadzone=21,11 / fast_pskip=1 / chroma_qp_offset=-2 / threads=12 / lookahead_threads=2 / sliced_threads=0 / nr=0 / decimate=1 / interlaced=0 / bluray_compat=0 / constrained_intra=0 / bframes=8 / b_pyramid=1 / b_adapt=2 / b_bias=2 / direct=3 / weightb=1 / open_gop=0 / weightp=2 / keyint=240 / keyint_min=23 / scenecut=40 / intra_refresh=0 / rc_lookahead=60 / rc=2pass / mbtree=1 / bitrate=1839 / ratetol=1.0 / qcomp=0.60 / qpmin=0 / qpmax=69 / qpstep=4 / cplxblur=20.0 / qblur=0.5 / ip_ratio=1.40 / aq=1:1.00
Encoded date                   : 2012-10-21 19:36:08 UTC
Tagged date                    : 2012-10-21 19:37:10 UTC
Codec configuration box        : avcC
Audio
ID                             : 2
Format                         : AAC LC
Format/Info                    : Advanced Audio Codec Low Complexity
Codec ID                       : mp4a-40-2
Duration                       : 1 h 32 min
Bit rate mode                  : Variable
Bit rate                       : 96.0 kb/s
Maximum bit rate               : 132 kb/s
Channel(s)                     : 2 channels
Channel layout                 : L R
Sampling rate                  : 48.0 kHz
Frame rate                     : 46.875 FPS (1024 SPF)
Compression mode               : Lossy
Stream size                    : 63.4 MiB (5%)
Language                       : English
Encoded date                   : 2012-10-21 19:37:05 UTC
Tagged date                    : 2012-10-21 19:37:10 UTC</pre>
</div><br>
Underworld: Awakening (2012):<br>
<br>
<img src="https://www.themoviedb.org/t/p/w600_and_h900_bestv2/jN0uuc8U6M3sTg9zEaliJV60Stf.jpg" class="bbCodeImage LbImage" alt="[​IMG]" data-url="https://www.themoviedb.org/t/p/w600_and_h900_bestv2/jN0uuc8U6M3sTg9zEaliJV60Stf.jpg" style=""><br>
<br>
<div class="bbCodeBlock bbCodeCode">
<div class="type">Code:</div>
<pre>General
Complete name                  : Underworld Films\4. Underworld- Awakening (2012).mp4
Format                         : MPEG-4
Format profile                 : Base Media
Codec ID                       : isom (isom/avc1)
File size                      : 1.40 GiB
Duration                       : 1 h 28 min
Overall bit rate mode          : Variable
Overall bit rate               : 2 264 kb/s
Frame rate                     : 23.976 FPS
Encoded date                   : 2012-04-18 21:17:52 UTC
Tagged date                    : 2012-04-18 21:17:52 UTC
Video
ID                             : 1
Format                         : AVC
Format/Info                    : Advanced Video Codec
Format profile                 : High@L4.2
Format settings                : CABAC / 5 Ref Frames
Format settings, CABAC         : Yes
Format settings, Reference fra : 5 frames
Codec ID                       : avc1
Codec ID/Info                  : Advanced Video Coding
Duration                       : 1 h 28 min
Bit rate                       : 2 199 kb/s
Maximum bit rate               : 31.8 Mb/s
Width                          : 1 920 pixels
Height                         : 800 pixels
Display aspect ratio           : 2.40:1
Frame rate mode                : Constant
Frame rate                     : 23.976 (24000/1001) FPS
Color space                    : YUV
Chroma subsampling             : 4:2:0
Bit depth                      : 8 bits
Scan type                      : Progressive
Bits/(Pixel*Frame)             : 0.060
Stream size                    : 1.36 GiB (97%)
Writing library                : x264 core 120 r2164 da19765
Encoding settings              : cabac=1 / ref=5 / deblock=1:-2:-1 / analyse=0x3:0x113 / me=umh / subme=8 / psy=1 / psy_rd=1.00:0.00 / mixed_ref=1 / me_range=16 / chroma_me=1 / trellis=1 / 8x8dct=1 / cqm=0 / deadzone=21,11 / fast_pskip=1 / chroma_qp_offset=-2 / threads=12 / sliced_threads=0 / nr=0 / decimate=1 / interlaced=0 / bluray_compat=0 / constrained_intra=0 / bframes=3 / b_pyramid=2 / b_adapt=2 / b_bias=0 / direct=3 / weightb=1 / open_gop=0 / weightp=2 / keyint=240 / keyint_min=23 / scenecut=40 / intra_refresh=0 / rc_lookahead=50 / rc=2pass / mbtree=1 / bitrate=2199 / ratetol=1.0 / qcomp=0.60 / qpmin=10 / qpmax=51 / qpstep=4 / cplxblur=20.0 / qblur=0.5 / vbv_maxrate=31250 / vbv_bufsize=31250 / nal_hrd=none / ip_ratio=1.40 / aq=1:1.00
Encoded date                   : 2012-04-18 21:17:52 UTC
Tagged date                    : 2012-04-18 21:18:37 UTC
Codec configuration box        : avcC
Audio
ID                             : 2
Format                         : AAC LC
Format/Info                    : Advanced Audio Codec Low Complexity
Codec ID                       : mp4a-40-2
Duration                       : 1 h 28 min
Bit rate mode                  : Variable
Bit rate                       : 64.0 kb/s
Maximum bit rate               : 112 kb/s
Channel(s)                     : 2 channels
Channel layout                 : L R
Sampling rate                  : 48.0 kHz
Frame rate                     : 46.875 FPS (1024 SPF)
Compression mode               : Lossy
Stream size                    : 40.6 MiB (3%)
Encoded date                   : 2012-04-18 21:18:24 UTC
Tagged date                    : 2012-04-18 21:18:37 UTC</pre>
</div><br>
Underworld: Blood Wars (2016):<br>
<br>
<img src="https://www.themoviedb.org/t/p/w600_and_h900_bestv2/v1ciDCWMG47gdT4kMyjyQbnLQQn.jpg" class="bbCodeImage LbImage" alt="[​IMG]" data-url="https://www.themoviedb.org/t/p/w600_and_h900_bestv2/v1ciDCWMG47gdT4kMyjyQbnLQQn.jpg" style=""><br>
<br>
<div class="bbCodeBlock bbCodeCode">
<div class="type">Code:</div>
<pre>General
Complete name                  : Underworld Films\5. Underworld- Blood Wars (2016).mp4
Format                         : MPEG-4
Format profile                 : Base Media
Codec ID                       : isom (isom/iso2/avc1/mp41)
File size                      : 1.41 GiB
Duration                       : 1 h 31 min
Overall bit rate               : 2 206 kb/s
Frame rate                     : 23.976 FPS
Writing application            : Lavf57.48.101
Video
ID                             : 1
Format                         : AVC
Format/Info                    : Advanced Video Codec
Format profile                 : High@L4.1
Format settings                : CABAC / 4 Ref Frames
Format settings, CABAC         : Yes
Format settings, Reference fra : 4 frames
Codec ID                       : avc1
Codec ID/Info                  : Advanced Video Coding
Duration                       : 1 h 31 min
Bit rate                       : 2 050 kb/s
Width                          : 1 920 pixels
Height                         : 800 pixels
Display aspect ratio           : 2.40:1
Frame rate mode                : Constant
Frame rate                     : 23.976 FPS
Color space                    : YUV
Chroma subsampling             : 4:2:0
Bit depth                      : 8 bits
Scan type                      : Progressive
Bits/(Pixel*Frame)             : 0.056
Stream size                    : 1.31 GiB (93%)
Writing library                : x264 core 148
Encoding settings              : cabac=1 / ref=4 / deblock=1:-1:-1 / analyse=0x3:0x133 / me=umh / subme=9 / psy=1 / psy_rd=1.00:0.15 / mixed_ref=1 / me_range=24 / chroma_me=1 / trellis=2 / 8x8dct=1 / cqm=0 / deadzone=21,11 / fast_pskip=0 / chroma_qp_offset=-3 / threads=12 / lookahead_threads=1 / sliced_threads=0 / nr=0 / decimate=1 / interlaced=0 / bluray_compat=0 / constrained_intra=0 / bframes=3 / b_pyramid=2 / b_adapt=2 / b_bias=0 / direct=3 / weightb=1 / open_gop=0 / weightp=2 / keyint=250 / keyint_min=23 / scenecut=40 / intra_refresh=0 / rc_lookahead=60 / rc=2pass / mbtree=1 / bitrate=2050 / ratetol=1.0 / qcomp=0.60 / qpmin=0 / qpmax=69 / qpstep=4 / cplxblur=20.0 / qblur=0.5 / vbv_maxrate=31250 / vbv_bufsize=31250 / nal_hrd=none / filler=0 / ip_ratio=1.40 / aq=1:1.00
Codec configuration box        : avcC
Audio
ID                             : 2
Format                         : AAC LC
Format/Info                    : Advanced Audio Codec Low Complexity
Codec ID                       : mp4a-40-2
Duration                       : 1 h 31 min
Bit rate mode                  : Constant
Bit rate                       : 149 kb/s
Channel(s)                     : 2 channels
Channel layout                 : L R
Sampling rate                  : 48.0 kHz
Frame rate                     : 46.875 FPS (1024 SPF)
Compression mode               : Lossy
Stream size                    : 97.8 MiB (7%)
Default                        : Yes
Alternate group                : 1</pre>
</div><br>
<div class="ToggleTriggerAnchor bbCodeSpoilerContainer">
<button type="button" class="button bbCodeSpoilerButton ToggleTrigger Tooltip JsOnly" data-target="> .SpoilerTarget"><span>Spoiler: <span class="SpoilerTitle">How to decrypt code</span></span></button>
<div class="SpoilerTarget bbCodeSpoilerText"><span data-s9e-mediaembed="youtube" style="display:inline-block;width:100%;max-width:640px"><span style="display:block;overflow:hidden;position:relative;padding-bottom:56.25%"><iframe allowfullscreen="" loading="lazy" scrolling="no" style="background:url(https://i.ytimg.com/vi/DhYn9txiC1g/hqdefault.jpg) 50% 50% / cover;border:0;height:100%;left:0;position:absolute;width:100%" src="https://www.youtube.com/embed/DhYn9txiC1g"></iframe></span></span></div>
</div><br>
<div class="bbCodeBlock bbCodeVfcHH HiddenContent">
<div class="attribution type">Hidden Content:</div>
<blockquote>You must either reply or click 'Like' to see the hidden information contained here.</blockquote>
</div>
<div class="messageTextEndMarker">&nbsp;</div>
</blockquote>
</article>]]></description>
                <author><![CDATA[darkspark]]></author>
                </item>

                </channel></rss>